<svg width="24" height="24" viewBox="0 0 24 24" fill="none" xmlns="http://www.w3.org/2000/svg">
<rect x="3.25" y="3.75" width="14.5" height="14.5" rx="1.25" stroke="white" stroke-width="1.5"/>
<path d="M8.80852 16.2499C8.53597 16.2494 8.27054 16.1628 8.05008 16.0026C7.87992 15.8797 7.74134 15.7181 7.64572 15.5312C7.55009 15.3443 7.50016 15.1374 7.5 14.9275C7.49939 14.6807 7.57629 14.44 7.71986 14.2393C7.86343 14.0386 8.06642 13.888 8.30016 13.8088L9.49219 13.4076C9.56782 13.3818 9.63341 13.3328 9.67968 13.2677C9.72595 13.2025 9.75055 13.1245 9.75 13.0445V7.1561C9.74966 6.98899 9.80497 6.82651 9.90721 6.69432C10.0094 6.56212 10.1528 6.46773 10.3146 6.42603L12.855 5.76649C12.9312 5.74674 13.0109 5.7447 13.088 5.76053C13.1652 5.77635 13.2376 5.80963 13.2999 5.85779C13.3622 5.90596 13.4126 5.96775 13.4472 6.03842C13.4819 6.10909 13.5 6.18676 13.5 6.26548V7.61899C13.5005 7.78662 13.4449 7.9496 13.3421 8.08204C13.2394 8.21448 13.0953 8.3088 12.9328 8.35001L10.7848 8.89212C10.7027 8.91346 10.6302 8.96157 10.5786 9.02882C10.527 9.09607 10.4994 9.17862 10.5 9.26337V14.9374C10.5006 15.1743 10.4268 15.4054 10.2889 15.598C10.1511 15.7907 9.95616 15.9352 9.73172 16.011L9.22852 16.1805C9.09323 16.2263 8.95136 16.2497 8.80852 16.2499Z" fill="white"/>
<path fill-rule="evenodd" clip-rule="evenodd" d="M5.5 20.4062L20 20.4062L20 7L21.5 7L21.5 20.4062C21.5 21.2865 20.7865 22 19.9062 22L5.5 22L5.5 20.4062Z" fill="white"/>
</svg>
