<svg width="24" height="24" viewBox="0 0 24 24" fill="none" xmlns="http://www.w3.org/2000/svg">
<path d="M21.4996 12.7493C21.4996 11.1034 20.2405 9.67574 18.4136 8.99023L17.373 9.77984C18.9798 10.2175 20.1316 11.3833 20.1316 12.7493C20.1316 14.1104 18.9889 15.2729 17.3921 15.7151L18.431 16.5023C20.2484 15.8141 21.4996 14.3909 21.4996 12.7493Z" fill="white"/>
<path d="M14.9787 10.9086V11.6801H15.7501C16.3265 11.6801 16.8158 11.8468 17.1409 12.0772C17.4678 12.3089 17.5765 12.5578 17.5765 12.75C17.5765 12.9417 17.468 13.1905 17.1411 13.4222C16.816 13.6526 16.3268 13.8194 15.7505 13.8194H14.9791V14.5909V20.453C13.4051 19.202 11.6796 18.0325 10.346 17.1745C9.66684 16.7375 9.08633 16.3794 8.67503 16.1302C8.46934 16.0055 8.30582 15.9081 8.19329 15.8415C8.13702 15.8082 8.09349 15.7826 8.06379 15.7652L8.02975 15.7453L8.02077 15.7401L8.01834 15.7387L8.01764 15.7383L8.01742 15.7382C8.01735 15.7381 8.01729 15.7381 7.6305 16.4056L8.01729 15.7381L7.83787 15.6341H7.6305H4.90363C4.65673 15.6341 4.46598 15.5621 4.35707 15.4849C4.29807 15.4431 4.27764 15.413 4.27143 15.4003V10.099C4.27768 10.0863 4.29814 10.0563 4.35701 10.0146C4.46595 9.9374 4.65673 9.86536 4.90363 9.86536H7.6301H7.86859L8.06548 9.73076L7.6301 9.09392L8.06555 9.73071L8.06577 9.73056L8.06665 9.72995L8.07018 9.72754L8.08415 9.71799L8.13869 9.68071L8.34616 9.53893L9.08999 9.03081C9.70745 8.60914 10.5351 8.04421 11.3762 7.47109C13.0731 6.31468 14.7829 5.15342 14.9787 5.03285V10.9086ZM4.26907 15.3936C4.26925 15.3936 4.2699 15.3951 4.27048 15.3983C4.26917 15.3953 4.26888 15.3937 4.26907 15.3936ZM4.26904 10.1057C4.26885 10.1057 4.26914 10.1041 4.27045 10.1011C4.26987 10.1043 4.26922 10.1058 4.26904 10.1057Z" stroke="white" stroke-width="1.54286"/>
</svg>
