<svg width="97" height="39" viewBox="0 0 97 39" fill="none" xmlns="http://www.w3.org/2000/svg">
<circle cx="19.5" cy="19.5" r="19.5" fill="#F9B4AB"/>
<path d="M48.186 20.336C48.186 20.752 48.138 21.1893 48.042 21.648C47.9567 22.1067 47.7913 22.5333 47.546 22.928C47.3007 23.3227 46.954 23.648 46.506 23.904C46.058 24.16 45.482 24.288 44.778 24.288C43.8607 24.288 43.1247 24.0587 42.57 23.6C42.026 23.1413 41.6527 22.5387 41.45 21.792L43.306 21.264C43.402 21.6373 43.578 21.936 43.834 22.16C44.09 22.3733 44.394 22.48 44.746 22.48C45.034 22.48 45.2687 22.4267 45.45 22.32C45.642 22.2133 45.786 22.064 45.882 21.872C45.9887 21.6693 46.0633 21.4347 46.106 21.168C46.1487 20.8907 46.17 20.592 46.17 20.272V12.672H48.186V20.336ZM49.8778 20.128C49.8778 19.52 49.9844 18.9707 50.1978 18.48C50.4218 17.9787 50.7204 17.552 51.0938 17.2C51.4671 16.848 51.9098 16.576 52.4218 16.384C52.9338 16.192 53.4778 16.096 54.0538 16.096C54.6298 16.096 55.1738 16.192 55.6858 16.384C56.1978 16.576 56.6404 16.848 57.0138 17.2C57.3871 17.552 57.6804 17.9787 57.8938 18.48C58.1178 18.9707 58.2298 19.52 58.2298 20.128C58.2298 20.736 58.1178 21.2907 57.8938 21.792C57.6804 22.2933 57.3871 22.7253 57.0138 23.088C56.6404 23.44 56.1978 23.7173 55.6858 23.92C55.1738 24.1227 54.6298 24.224 54.0538 24.224C53.4778 24.224 52.9338 24.1227 52.4218 23.92C51.9098 23.7173 51.4671 23.44 51.0938 23.088C50.7204 22.7253 50.4218 22.2933 50.1978 21.792C49.9844 21.2907 49.8778 20.736 49.8778 20.128ZM51.8298 20.128C51.8298 20.4267 51.8724 20.7253 51.9578 21.024C52.0538 21.3227 52.1924 21.5893 52.3738 21.824C52.5551 22.0587 52.7844 22.2507 53.0618 22.4C53.3391 22.5493 53.6698 22.624 54.0538 22.624C54.4378 22.624 54.7684 22.5493 55.0458 22.4C55.3231 22.2507 55.5524 22.0587 55.7338 21.824C55.9151 21.5893 56.0484 21.3227 56.1338 21.024C56.2298 20.7253 56.2778 20.4267 56.2778 20.128C56.2778 19.8293 56.2298 19.536 56.1338 19.248C56.0484 18.9493 55.9151 18.6827 55.7338 18.448C55.5524 18.2133 55.3231 18.0267 55.0458 17.888C54.7684 17.7387 54.4378 17.664 54.0538 17.664C53.6698 17.664 53.3391 17.7387 53.0618 17.888C52.7844 18.0267 52.5551 18.2133 52.3738 18.448C52.1924 18.6827 52.0538 18.9493 51.9578 19.248C51.8724 19.536 51.8298 19.8293 51.8298 20.128ZM64.1344 18.368C63.9637 18.144 63.729 17.952 63.4304 17.792C63.1317 17.6213 62.8064 17.536 62.4544 17.536C62.145 17.536 61.8624 17.6 61.6064 17.728C61.3504 17.856 61.2224 18.0693 61.2224 18.368C61.2224 18.6667 61.361 18.88 61.6384 19.008C61.9264 19.1253 62.3424 19.248 62.8864 19.376C63.1744 19.44 63.4624 19.5253 63.7504 19.632C64.049 19.7387 64.3157 19.8827 64.5504 20.064C64.7957 20.2347 64.993 20.4533 65.1424 20.72C65.2917 20.976 65.3664 21.2907 65.3664 21.664C65.3664 22.1333 65.2757 22.5333 65.0944 22.864C64.9237 23.184 64.689 23.4453 64.3904 23.648C64.1024 23.8507 63.761 23.9947 63.3664 24.08C62.9824 24.176 62.5824 24.224 62.1664 24.224C61.569 24.224 60.9877 24.1173 60.4224 23.904C59.857 23.68 59.3877 23.3653 59.0144 22.96L60.2784 21.776C60.4917 22.0533 60.769 22.2827 61.1104 22.464C61.4517 22.6453 61.8304 22.736 62.2464 22.736C62.385 22.736 62.5237 22.72 62.6624 22.688C62.8117 22.656 62.945 22.608 63.0624 22.544C63.1904 22.4693 63.2917 22.3733 63.3664 22.256C63.441 22.1387 63.4784 21.9947 63.4784 21.824C63.4784 21.504 63.329 21.2747 63.0304 21.136C62.7424 20.9973 62.305 20.8587 61.7184 20.72C61.4304 20.656 61.1477 20.576 60.8704 20.48C60.6037 20.3733 60.3637 20.24 60.1504 20.08C59.937 19.9093 59.7664 19.7013 59.6384 19.456C59.5104 19.2107 59.4464 18.9067 59.4464 18.544C59.4464 18.1173 59.5317 17.7493 59.7024 17.44C59.8837 17.1307 60.1184 16.88 60.4064 16.688C60.6944 16.4853 61.0197 16.336 61.3824 16.24C61.745 16.144 62.1184 16.096 62.5024 16.096C63.057 16.096 63.5957 16.192 64.1184 16.384C64.6517 16.576 65.073 16.8693 65.3824 17.264L64.1344 18.368ZM68.7108 16.32V17.392H68.7588C68.8548 17.2427 68.9774 17.0933 69.1268 16.944C69.2868 16.784 69.4788 16.6453 69.7028 16.528C69.9268 16.4 70.1774 16.2987 70.4548 16.224C70.7428 16.1387 71.0628 16.096 71.4148 16.096C71.9588 16.096 72.4601 16.2027 72.9188 16.416C73.3774 16.6187 73.7721 16.9013 74.1028 17.264C74.4334 17.6267 74.6894 18.0533 74.8708 18.544C75.0521 19.0347 75.1428 19.5627 75.1428 20.128C75.1428 20.6933 75.0521 21.2267 74.8708 21.728C74.7001 22.2187 74.4494 22.6507 74.1188 23.024C73.7988 23.3867 73.4041 23.68 72.9348 23.904C72.4761 24.1173 71.9534 24.224 71.3668 24.224C70.8228 24.224 70.3214 24.112 69.8628 23.888C69.4148 23.664 69.0681 23.36 68.8228 22.976H68.7908V27.84H66.8708V16.32H68.7108ZM73.1908 20.128C73.1908 19.8293 73.1428 19.536 73.0468 19.248C72.9614 18.9493 72.8281 18.6827 72.6468 18.448C72.4654 18.2133 72.2361 18.0267 71.9588 17.888C71.6814 17.7387 71.3561 17.664 70.9828 17.664C70.6308 17.664 70.3161 17.7387 70.0388 17.888C69.7614 18.0373 69.5214 18.2293 69.3188 18.464C69.1268 18.6987 68.9774 18.9653 68.8708 19.264C68.7748 19.5627 68.7268 19.8613 68.7268 20.16C68.7268 20.4587 68.7748 20.7573 68.8708 21.056C68.9774 21.344 69.1268 21.6053 69.3188 21.84C69.5214 22.0747 69.7614 22.2667 70.0388 22.416C70.3161 22.5547 70.6308 22.624 70.9828 22.624C71.3561 22.624 71.6814 22.5493 71.9588 22.4C72.2361 22.2507 72.4654 22.0587 72.6468 21.824C72.8281 21.5893 72.9614 21.3227 73.0468 21.024C73.1428 20.7253 73.1908 20.4267 73.1908 20.128ZM76.8627 11.904H78.7827V24H76.8627V11.904ZM85.715 23.024H85.667C85.475 23.3653 85.1657 23.648 84.739 23.872C84.3123 24.0853 83.827 24.192 83.283 24.192C82.9737 24.192 82.6483 24.1493 82.307 24.064C81.9763 23.9893 81.667 23.8613 81.379 23.68C81.1017 23.488 80.867 23.2427 80.675 22.944C80.4937 22.6347 80.403 22.256 80.403 21.808C80.403 21.232 80.563 20.7733 80.883 20.432C81.2137 20.0907 81.635 19.8293 82.147 19.648C82.659 19.4667 83.2243 19.3493 83.843 19.296C84.4723 19.232 85.0857 19.2 85.683 19.2V19.008C85.683 18.528 85.507 18.176 85.155 17.952C84.8137 17.7173 84.403 17.6 83.923 17.6C83.5177 17.6 83.1283 17.6853 82.755 17.856C82.3817 18.0267 82.0723 18.2347 81.827 18.48L80.835 17.312C81.2723 16.9067 81.7737 16.6027 82.339 16.4C82.915 16.1973 83.4963 16.096 84.083 16.096C84.7657 16.096 85.3257 16.192 85.763 16.384C86.211 16.576 86.563 16.8267 86.819 17.136C87.075 17.4453 87.251 17.792 87.347 18.176C87.4537 18.56 87.507 18.944 87.507 19.328V24H85.715V23.024ZM85.683 20.496H85.251C84.9417 20.496 84.6163 20.512 84.275 20.544C83.9337 20.5653 83.619 20.624 83.331 20.72C83.043 20.8053 82.803 20.9333 82.611 21.104C82.419 21.264 82.323 21.488 82.323 21.776C82.323 21.9573 82.3603 22.112 82.435 22.24C82.5203 22.3573 82.627 22.4533 82.755 22.528C82.883 22.6027 83.027 22.656 83.187 22.688C83.347 22.72 83.507 22.736 83.667 22.736C84.3283 22.736 84.8297 22.56 85.171 22.208C85.5123 21.856 85.683 21.376 85.683 20.768V20.496ZM88.4269 16.32H90.5549L92.6989 21.904H92.7309L94.6349 16.32H96.6349L93.0029 25.648C92.8642 26 92.7149 26.3093 92.5549 26.576C92.3949 26.8533 92.2029 27.0827 91.9789 27.264C91.7549 27.456 91.4882 27.6 91.1789 27.696C90.8802 27.792 90.5175 27.84 90.0909 27.84C89.9309 27.84 89.7655 27.8293 89.5949 27.808C89.4349 27.7973 89.2695 27.7707 89.0989 27.728L89.2589 26.064C89.3869 26.1067 89.5095 26.1333 89.6269 26.144C89.7549 26.1653 89.8722 26.176 89.9789 26.176C90.1815 26.176 90.3522 26.1493 90.4909 26.096C90.6295 26.0533 90.7469 25.9787 90.8429 25.872C90.9389 25.776 91.0242 25.6533 91.0989 25.504C91.1735 25.3547 91.2535 25.1787 91.3389 24.976L91.7229 24L88.4269 16.32Z" fill="white"/>
<path d="M26.3021 10.5327C26.1722 10.4327 26.021 10.3641 25.8601 10.3323C25.6993 10.3006 25.5333 10.3066 25.3752 10.3498L17.1999 12.5474C16.9163 12.6236 16.666 12.7919 16.4884 13.0258C16.3108 13.2598 16.216 13.5461 16.2188 13.8398V23.1093C16.2188 23.3858 16.04 23.6245 15.7631 23.7176L15.7582 23.7196L13.6254 24.4579C12.8096 24.7307 12.2813 25.4882 12.2813 26.3869C12.2783 26.7524 12.3634 27.1133 12.5292 27.439C12.695 27.7647 12.9368 28.0458 13.2341 28.2584C13.617 28.5366 14.0779 28.6867 14.5511 28.6875C14.7987 28.687 15.0446 28.6464 15.2792 28.5673L15.2947 28.5619L16.1905 28.2363C16.5791 28.1066 16.9173 27.8585 17.1578 27.5268C17.3982 27.1951 17.5289 26.7965 17.5313 26.3869V17.6916C17.5313 17.3926 17.727 17.1498 18.0301 17.0735L18.0387 17.071L25.2012 15.158C25.2254 15.1518 25.2508 15.1512 25.2752 15.1562C25.2997 15.1612 25.3227 15.1718 25.3425 15.187C25.3623 15.2023 25.3783 15.2219 25.3894 15.2443C25.4005 15.2667 25.4062 15.2914 25.4063 15.3164V21.1377C25.4063 21.4146 25.232 21.6455 24.9506 21.7398L24.9404 21.7435L22.8531 22.4863C22.4472 22.6198 22.0943 22.879 21.8454 23.2264C21.5966 23.5737 21.4647 23.9913 21.4688 24.4185C21.4652 24.7852 21.5498 25.1473 21.7157 25.4742C21.8815 25.8012 22.1237 26.0834 22.4216 26.2971C22.7133 26.5079 23.0516 26.6454 23.4077 26.6979C23.7638 26.7504 24.1273 26.7163 24.4675 26.5985L24.4822 26.5936L25.378 26.2675C25.7666 26.1379 26.1048 25.8899 26.3452 25.5583C26.5857 25.2267 26.7163 24.8281 26.7188 24.4185V11.3789C26.7197 11.2152 26.6825 11.0535 26.6102 10.9067C26.5379 10.7598 26.4324 10.6318 26.3021 10.5327Z" fill="#222F39"/>
</svg>
