<svg width="24" height="24" viewBox="0 0 24 24" fill="none" xmlns="http://www.w3.org/2000/svg">
<path d="M11.75 11.287L11.375 11.0705C11.1861 10.9614 11.029 10.8048 10.9193 10.6162C10.8101 10.4283 10.7517 10.2151 10.75 9.9977C10.7506 9.66701 10.8822 9.35 11.1161 9.11612C11.3505 8.8817 11.6685 8.75 12 8.75C12.3315 8.75 12.6495 8.8817 12.8839 9.11612C13.1178 9.35 13.2494 9.66701 13.25 9.9977C13.2483 10.2151 13.1899 10.4283 13.0807 10.6162C12.971 10.8048 12.8139 10.9614 12.625 11.0705L12.25 11.287V11.72V15C12.25 15.0663 12.2237 15.1299 12.1768 15.1768C12.1299 15.2237 12.0663 15.25 12 15.25C11.9337 15.25 11.8701 15.2237 11.8232 15.1768C11.7763 15.1299 11.75 15.0663 11.75 15V11.72V11.287ZM5 2.75H19C19.5967 2.75 20.169 2.98705 20.591 3.40901C21.0129 3.83097 21.25 4.40326 21.25 5V19C21.25 19.5967 21.0129 20.169 20.591 20.591C20.169 21.0129 19.5967 21.25 19 21.25H5C4.40326 21.25 3.83097 21.0129 3.40901 20.591C2.98705 20.169 2.75 19.5967 2.75 19V5C2.75 4.40326 2.98705 3.83097 3.40901 3.40901C3.83097 2.98705 4.40326 2.75 5 2.75ZM20.2374 20.2374C20.5656 19.9092 20.75 19.4641 20.75 19V5C20.75 4.53587 20.5656 4.09075 20.2374 3.76256C19.9092 3.43437 19.4641 3.25 19 3.25H5C4.53587 3.25 4.09075 3.43437 3.76256 3.76256C3.43437 4.09075 3.25 4.53587 3.25 5V19C3.25 19.4641 3.43437 19.9092 3.76256 20.2374C4.09075 20.5656 4.53587 20.75 5 20.75H19C19.4641 20.75 19.9092 20.5656 20.2374 20.2374Z" fill="white" stroke="white" stroke-width="1.5"/>
</svg>
