<svg width="24" height="24" viewBox="0 0 24 24" fill="none" xmlns="http://www.w3.org/2000/svg">
<path d="M11.6 14.5578C11.2568 14.3597 10.9887 14.0539 10.837 13.6879C10.6854 13.3218 10.6588 12.916 10.7613 12.5333C10.8639 12.1506 11.0899 11.8124 11.4042 11.5712C11.7186 11.33 12.1038 11.1993 12.5 11.1993C12.8962 11.1993 13.2814 11.33 13.5958 11.5712C13.9101 11.8124 14.1361 12.1506 14.2387 12.5333C14.3412 12.916 14.3146 13.3218 14.163 13.6879C14.0113 14.0539 13.7432 14.3597 13.4 14.5578V22H11.6V14.5578ZM16.316 16.8166L15.047 15.5477C15.5555 15.046 15.9028 14.404 16.0444 13.7039C16.1861 13.0038 16.1157 12.2773 15.8422 11.6174C15.5688 10.9575 15.1047 10.3942 14.5093 9.99941C13.914 9.60465 13.2144 9.39642 12.5 9.40134C11.7876 9.40078 11.091 9.61159 10.4985 10.0071C9.90593 10.4026 9.44407 10.965 9.17136 11.6231C8.89865 12.2812 8.82736 13.0054 8.9665 13.704C9.10564 14.4026 9.44896 15.0443 9.953 15.5477L8.684 16.8166C7.9294 16.0612 7.4157 15.0991 7.20782 14.0519C6.99995 13.0047 7.10724 11.9193 7.51613 10.9331C7.92502 9.94679 8.61715 9.10387 9.50505 8.51083C10.3929 7.9178 11.4367 7.60129 12.5045 7.60129C13.5723 7.60129 14.6161 7.9178 15.504 8.51083C16.3918 9.10387 17.084 9.94679 17.4929 10.9331C17.9018 11.9193 18.0091 13.0047 17.8012 14.0519C17.5933 15.0991 17.0796 16.0612 16.325 16.8166H16.316ZM18.863 19.3633L17.594 18.0944C18.6014 17.0878 19.2876 15.805 19.5658 14.4084C19.844 13.0117 19.7017 11.5639 19.1569 10.2482C18.6121 8.93242 17.6892 7.80778 16.5051 7.01651C15.321 6.22524 13.9287 5.80289 12.5045 5.80289C11.0803 5.80289 9.68804 6.22524 8.50391 7.01651C7.31977 7.80778 6.39693 8.93242 5.85212 10.2482C5.30731 11.5639 5.165 13.0117 5.44319 14.4084C5.72139 15.805 6.40759 17.0878 7.415 18.0944L6.137 19.3633C4.87806 18.1049 4.02062 16.5014 3.67314 14.7557C3.32565 13.0099 3.50372 11.2004 4.18483 9.55588C4.86594 7.91137 6.01949 6.50575 7.49959 5.5168C8.97969 4.52785 10.7199 4 12.5 4C14.2801 4 16.0203 4.52785 17.5004 5.5168C18.9805 6.50575 20.1341 7.91137 20.8152 9.55588C21.4963 11.2004 21.6744 13.0099 21.3269 14.7557C20.9794 16.5014 20.1219 18.1049 18.863 19.3633Z" fill="#222F39"/>
</svg>
